<svg xmlns="http://www.w3.org/2000/svg" width="10" height="16" viewBox="0 0 10 16">
    <g fill="none" fill-rule="evenodd">
        <g fill="#E33333">
            <g>
                <path d="M9.819 6.596l-.005.177.005.187-.005.177.005.187-.005.178.005.185-.119 5.166c-.028 1.226-.96 2.24-2.179 2.373-1.736.188-3.487.188-5.224 0-1.219-.132-2.15-1.147-2.179-2.373L0 7.687l.004-.186L0 7.324l.005-.186L0 6.96l.005-.186L0 6.596l.12-4.435c0-.061.005-.123.012-.183l.003-.026.002-.02c.059-.6.39-1.122.875-1.436.036-.024.073-.047.11-.069.038-.021.075-.042.114-.062.237-.125.502-.206.785-.232 1.921-.177 3.855-.177 5.777 0 .282.026.547.107.784.232.038.02.076.04.113.062.039.022.077.046.114.07.481.313.812.833.872 1.43l.006.054c.006.06.01.12.012.18l.12 4.435zm-1.22-4.494l.115 4.994-.093 3.44c-.02.774-.616 1.41-1.387 1.48-1.546.143-3.103.143-4.65 0-.77-.07-1.366-.706-1.387-1.48l-.092-3.44.114-4.994.001-.032c.044-.292.213-.545.453-.698.092-.048.193-.08.3-.09 1.952-.212 3.92-.212 5.873 0 .107.01.208.042.299.09.24.153.41.406.453.698l.002.032zm-3.69 12.64c.603 0 1.091-.489 1.091-1.091 0-.603-.488-1.091-1.09-1.091-.603 0-1.092.488-1.092 1.09 0 .603.489 1.092 1.091 1.092z" transform="translate(-755 -2939) translate(755 2939)"/>
            </g>
        </g>
    </g>
</svg>
