<svg xmlns="http://www.w3.org/2000/svg" width="40" height="20" viewBox="0 0 40 20">
    <g fill="none" fill-rule="evenodd">
        <g fill="#0E3FF2" fill-rule="nonzero">
            <g>
                <path d="M9.506 8.762c-.219-.756-.487-2.075-.487-2.075h-.031s-.27 1.32-.488 2.075l-.694 2.344h2.381l-.68-2.344zM38.5 0H21v20h17.5c.831 0 1.5-.669 1.5-1.5v-17c0-.831-.669-1.5-1.5-1.5zM37 7.5c0 .412-.337.75-.75.75h-.712c-.432 1.475-1.357 2.963-2.67 4.369.526.4 1.07.781 1.632 1.125.344.212.456.656.256 1.012l-.493.869c-.213.369-.682.488-1.044.269-.788-.488-1.532-1.007-2.213-1.556-.681.543-1.419 1.068-2.212 1.556-.363.219-.832.1-1.044-.269l-.494-.869c-.2-.35-.087-.8.263-1.012.581-.357 1.125-.732 1.631-1.125-.494-.525-.931-1.063-1.313-1.607-.25-.356-.137-.85.232-1.068l.406-.244.456-.269c.338-.2.775-.106 1 .213.313.437.675.875 1.088 1.306.844-.887 1.487-1.806 1.875-2.7H25.75c-.413 0-.75-.338-.75-.75v-1c0-.412.337-.75.75-.75h4v-1c0-.412.337-.75.75-.75h1c.413 0 .75.338.75.75v1h4c.413 0 .75.338.75.75v1zm-37-6v17c0 .831.669 1.5 1.5 1.5H19V0H1.5C.669 0 0 .669 0 1.5zm3.681 13.506L7.275 4.437c.106-.306.387-.506.712-.506h2.032c.319 0 .606.207.712.506l3.594 10.57c.163.487-.194.993-.712.993H12.18c-.332 0-.624-.219-.718-.537l-.588-1.994H7.112l-.568 1.987c-.094.319-.388.544-.719.544H4.394c-.513 0-.875-.506-.713-.994z" transform="translate(-159 -190) translate(159 190)"/>
            </g>
        </g>
    </g>
</svg>
