<svg xmlns="http://www.w3.org/2000/svg" width="12" height="9" viewBox="0 0 12 9">
    <g fill="none" fill-rule="evenodd">
        <g fill="#FFF" fill-rule="nonzero">
            <g>
                <path d="M10.433 2.286c.004.096.006.192.006.289 0 2.943-2.276 6.336-6.437 6.336-1.277 0-2.467-.369-3.468-1 .177.02.357.03.54.03 1.06 0 2.035-.356 2.81-.953-.99-.018-1.826-.662-2.114-1.547.138.027.28.04.425.04.207 0 .407-.027.596-.078C1.757 5.2.977 4.3.977 3.22v-.028c.305.166.654.266 1.025.278C1.395 3.07.995 2.39.995 1.617c0-.409.112-.791.307-1.12C2.418 1.844 4.085 2.73 5.965 2.824c-.039-.163-.059-.333-.059-.508C5.906 1.086 6.92.089 8.17.089c.65 0 1.238.27 1.651.704.515-.1 1-.286 1.437-.541-.169.52-.528.956-.995 1.232.457-.054.893-.173 1.3-.35-.304.446-.688.838-1.13 1.152" transform="translate(-512 -4284) translate(512 4284)"/>
            </g>
        </g>
    </g>
</svg>
