<svg xmlns="http://www.w3.org/2000/svg" width="10" height="10" viewBox="0 0 10 10">
    <g fill="none" fill-rule="evenodd">
        <g fill="#FFF" fill-rule="nonzero">
            <g>
                <path d="M7.5.469c1.12.003 2.028.91 2.031 2.031v5c-.003 1.12-.91 2.028-2.031 2.031h-5C1.38 9.528.472 8.621.469 7.5v-5C.472 1.38 1.379.472 2.5.469h5zm.469.937c-.345 0-.625.28-.625.625s.28.625.625.625.625-.28.625-.625-.28-.625-.625-.625zM5 2.187c-1.553 0-2.813 1.26-2.813 2.813 0 1.553 1.26 2.813 2.813 2.813 1.553 0 2.813-1.26 2.813-2.813.001-.746-.295-1.463-.822-1.99-.528-.528-1.245-.824-1.991-.823zM5 6.72c-.95 0-1.719-.77-1.719-1.719 0-.95.77-1.719 1.719-1.719.95 0 1.719.77 1.719 1.719 0 .95-.77 1.719-1.719 1.719z" transform="translate(-513 -4307) translate(513 4307)"/>
            </g>
        </g>
    </g>
</svg>
