<svg xmlns="http://www.w3.org/2000/svg" width="240" height="51" viewBox="0 0 240 51">
    <g fill="none" fill-rule="evenodd">
        <g fill="#FFF">
            <g>
                <path d="M84.602 10.214H86.592l1.043.002h1.605l1.096.002h9.956v34.74h-8.7v-4.996c-2.038 2.96-5.927 5.553-11.358 5.553-8.64 0-15.553-7.098-15.553-17.773 0-10.68 6.913-17.53 15.616-17.53l4.008.002h.297zm59.798-.001c9.876 0 16.85 6.728 16.85 16.91 0 1.111-.063 2.222-.247 3.333h-24.996c.431 5.06 3.889 7.899 8.208 7.899 3.704 0 5.739-1.85 6.852-4.135h9.318c-1.852 6.297-7.529 11.295-15.985 11.295-9.935 0-17.158-6.91-17.158-17.65 0-10.802 7.037-17.652 17.158-17.652zm79.101 0l1.718.002H226.782l1.148.002h1.46l.888.002H239.193v34.74h-8.701v-4.997c-2.04 2.96-5.925 5.553-11.356 5.553-8.643 0-15.555-7.098-15.555-17.773 0-10.68 6.912-17.53 15.615-17.53l4.008.002h.297zm-98.43.023v9.112h-2.285c-5.121 0-8.209 1.974-8.209 8.577V44.96h-8.641V10.242l19.134-.006zm56.982.033l.564.001 1.12.003H184.557l.533.001c7.962 0 13.64 5.186 13.64 14.627V44.96h-8.64V26.075c0-5.492-3.027-8.457-7.593-8.457-4.691 0-7.713 2.965-7.713 8.457v18.884h-8.643V10.23h8.705c.493.004 3.824.027 7.207.038zM82.52 17.804c-4.63 0-9.011 3.457-9.011 9.938 0 6.478 4.38 10.182 9.01 10.182 4.751 0 9.074-3.58 9.074-10.06s-4.323-10.06-9.073-10.06zm138.9 0c-4.63 0-9.01 3.457-9.01 9.938 0 6.478 4.38 10.182 9.01 10.182 4.752 0 9.073-3.58 9.073-10.06s-4.32-10.06-9.074-10.06zm-77.265-.495c-4.136 0-7.406 2.656-8.086 7.345H152.3c-.123-4.505-3.702-7.345-8.146-7.345z" transform="translate(-960 -399) translate(960 399)"/>
                <g>
                    <path d="M26.23 17.8c4.962 0 9.398 2.253 12.35 5.786.53.638 1.009 1.322 1.441 2.038.908 1.513 1.57 3.187 1.944 4.972.222 1.063.35 2.161.35 3.291 0 2.076-.407 4.053-1.122 5.875-.728 1.85-1.788 3.529-3.11 4.97-2.94 3.215-7.154 5.242-11.853 5.242-4.524 0-8.592-1.884-11.514-4.89l-.332-.352c-.16-.175-.334-.34-.487-.523-1.105-1.32-1.993-2.82-2.634-4.447-.717-1.82-1.122-3.797-1.122-5.875 0-1.128.12-2.229.341-3.291.372-1.79 1.053-3.457 1.965-4.972C15.258 20.942 20.37 17.8 26.23 17.8zM29.311 0c3.543 0 6.932.637 10.075 1.79l.721.275v7.11l4.72-4.722c2.853 1.787 5.383 4.043 7.466 6.67l.473.613-10.844 9.061c-3.75-4.487-9.387-7.35-15.692-7.35-8.344 0-15.51 5.008-18.687 12.177-.69 1.563-1.182 3.23-1.464 4.972-.176 1.074-.289 2.167-.289 3.291 0 2.046.315 4.013.876 5.875.533 1.772 1.301 3.437 2.264 4.97.374.593.768 1.17 1.193 1.723l.437.544-2.709 2.267c-1.295-1.39-2.443-2.912-3.449-4.534-.972-1.563-1.795-3.228-2.462-4.97C.934 37.134.312 34.325.108 31.397l-.096-1.656C.005 29.598 0 29.455 0 29.31c0-1.252.087-2.478.238-3.687C2.053 11.177 14.374 0 29.31 0z" transform="translate(-960 -399) translate(960 399)"/>
                </g>
            </g>
        </g>
    </g>
</svg>
