<svg xmlns="http://www.w3.org/2000/svg" width="424" height="30" viewBox="0 0 424 30">
    <g fill="none" fill-rule="evenodd">
        <g fill-rule="nonzero">
            <g>
                <g fill="#9E9E9E">
                    <path d="M77.542 23.062V.015H53.51v23.047h24.032zM72.066 6.634c-1.851-1.064-3.704-1.616-5.437-1.616-1.851 0-3.388.591-4.57 1.773-1.221 1.143-1.851 2.561-1.851 4.334 0 1.694.63 3.151 1.812 4.334 1.26 1.102 2.758 1.654 4.57 1.654 1.93 0 3.821-.59 5.673-1.773v2.482c-1.734.946-3.664 1.418-5.792 1.418-1.812 0-3.31-.354-4.57-1.063-1.207-.735-2.22-1.748-2.955-2.955-.709-1.339-1.103-2.679-1.103-4.097 0-2.364.827-4.294 2.522-5.87C62.02 3.679 64.069 2.85 66.47 2.85c1.734 0 3.585.434 5.594 1.34v2.443zM50.832.015H26.8v23.047h24.032V.015zM34.167 3.442h4.176c1.34 0 2.364.158 3.112.513.749.394 1.3.866 1.655 1.458.393.63.59 1.339.59 2.166 0 1.576-.787 2.679-2.442 3.349 1.182.197 2.127.67 2.797 1.458.67.709.985 1.615 1.024 2.639-.039.788-.236 1.536-.63 2.167-.434.63-1.025 1.143-1.852 1.576-.827.394-1.812.591-3.033.591h-5.397V3.442z" transform="translate(-508 -3310) translate(508 3310) translate(345.385 3.846)"/>
                    <path d="M37.949 10.258c1.22 0 2.088-.236 2.6-.67.512-.512.787-1.103.787-1.851 0-1.497-.984-2.285-2.915-2.285h-1.97v4.806h1.498zm.63 2.049h-2.127v5.003h2.285c1.063 0 1.93-.079 2.481-.237.513-.276.867-.59 1.104-.945.236-.394.394-.827.394-1.3-.04-.473-.158-.907-.434-1.3-.236-.434-.63-.749-1.182-.946-.511-.196-1.378-.315-2.521-.275zM24.042.015H.01v23.047h24.032V.015zM7.338 19.36V3.442h4.176c1.34 0 2.324.158 3.073.513.748.354 1.34.866 1.694 1.496.394.591.59 1.3.63 2.128-.04 1.575-.827 2.678-2.482 3.388 1.222.197 2.127.67 2.798 1.418.67.709 1.024 1.615 1.024 2.64 0 .826-.197 1.575-.63 2.166-.434.67-1.025 1.182-1.813 1.576-.827.394-1.851.591-3.073.591H7.338z" transform="translate(-508 -3310) translate(508 3310) translate(345.385 3.846)"/>
                    <path d="M11.593 5.452h-1.97v4.806h1.536c1.182 0 2.049-.236 2.561-.67.512-.472.788-1.103.788-1.812 0-1.536-.985-2.324-2.915-2.324zm.157 6.855H9.623v5.003h2.245c1.182 0 2.049-.079 2.56-.237.434-.196.789-.472 1.064-.867.237-.433.355-.866.394-1.378-.04-.552-.197-.985-.433-1.3-.27-.436-.69-.759-1.182-.907-.551-.235-1.418-.314-2.521-.314z" transform="translate(-508 -3310) translate(508 3310) translate(345.385 3.846)"/>
                </g>
                <g>
                    <path fill="#FFF" d="M101.564 21.27c0 .612-.5 1.113-1.112 1.113H1.95c-.611 0-1.112-.5-1.112-1.112V1.904c0-.612.5-1.112 1.112-1.112h98.502c.611 0 1.112.5 1.112 1.112v19.367z" transform="translate(-508 -3310) translate(508 3310) translate(0 3.846)"/>
                    <path fill="#9E9E9E" d="M102.314.014h-.046L2.404.004h-.046C1.033.134.004 1.487.004 3.081v16.976c0 1.65 1.094 2.993 2.428 2.993h99.817c1.344 0 2.428-1.344 2.428-2.993V3.09c0-1.594-1.038-2.947-2.363-3.076m-63.9 21.998H2.431c-.899 0-1.64-.936-1.64-2.085V2.951c0-1.121.723-2.066 1.65-2.159h35.971v21.22zm17.856-2.919l-.13.046c-.37.149-.816.223-1.316.223-.593 0-1.028-.093-1.325-.269-.287-.176-.519-.408-.704-.695L46.4 8.233v9.915c0 .343-.111.63-.315.862-.222.24-.584.352-1.121.352-.232 0-.464-.01-.695-.028-.241-.019-.417-.037-.556-.074l-.158-.037V4.165l.12-.056c.186-.083.418-.148.696-.185.268-.037.519-.056.741-.056.658 0 1.121.093 1.427.27.297.175.547.435.77.759l6.161 9.739.01-9.554c0-.324.101-.611.315-.852.222-.25.583-.37 1.102-.37.223 0 .445.008.677.036.231.028.407.056.546.084l.158.037-.01 15.076zm11.518-.213c-.223.232-.5.352-.834.352H59.91c-.639 0-1.056-.139-1.25-.417-.186-.26-.279-.584-.279-.982V5.305c0-.399.093-.723.278-.983.204-.277.612-.416 1.251-.416h7.867l.038.157c.037.13.064.306.083.528.028.223.037.445.037.667 0 .51-.111.862-.352 1.075-.232.213-.51.315-.834.315h-5.393v3.596h5.893l.084.648c.027.195.037.408.037.63 0 .492-.111.834-.325 1.038-.213.204-.481.306-.796.306h-4.893v3.605h6.653l.084.648c.027.195.037.408.037.63-.01.538-.12.9-.343 1.13m17.402-.796c-.12.556-.38.927-.77 1.084-.342.148-.796.223-1.324.223-.232 0-.51-.01-.825-.037-.324-.028-.602-.075-.834-.158l-.102-.037S78.741 7.936 78.722 7.872c-.093.435-2.41 10.22-2.41 10.22-.138.538-.38.89-.713 1.066-.306.157-.732.24-1.25.24-.25 0-.547-.018-.881-.045-.343-.038-.63-.093-.862-.177l-.111-.037-3.16-14.89.148-.066c.177-.083.38-.157.612-.213.241-.064.519-.102.825-.102.398 0 .741.075 1.02.232.296.167.49.473.583.917l1.909 10.527c.083-.463 2.437-10.443 2.437-10.443.102-.454.352-.788.741-.973.352-.176.806-.26 1.344-.26.519 0 1 .065 1.436.195l.111.037s2.558 11.055 2.65 11.565c.01-.065 1.89-10.703 1.89-10.703.075-.408.25-.704.538-.862.26-.148.584-.222.973-.222.278 0 .528.028.76.083.222.056.417.12.574.176l.158.065-2.854 13.881zm14.826-1.455c-.232.584-.602 1.084-1.103 1.501-.49.417-1.12.742-1.862.964-.732.222-1.631.343-2.65.343-.76 0-1.594-.074-2.484-.232-.89-.157-1.807-.389-2.724-.695l-.139-.046v-.148c0-.047 0-.093-.01-.13-.009-.056-.018-.12-.018-.195 0-.537.102-.982.306-1.334.222-.38.584-.575 1.075-.575.213 0 .463.038.76.093l.926.204c.343.074.723.148 1.13.204.409.055.863.093 1.363.093 1 0 1.714-.177 2.131-.529.408-.342.603-.769.603-1.288 0-.26-.047-.472-.14-.648-.092-.176-.222-.334-.398-.454-.185-.13-.408-.25-.676-.352-.278-.102-.603-.214-.964-.316l-1.9-.528c-1.538-.426-2.622-1.028-3.234-1.788-.62-.77-.926-1.659-.926-2.65 0-.491.092-1.01.26-1.52.175-.528.49-1 .926-1.427.435-.417 1.01-.76 1.723-1.029.705-.268 1.604-.407 2.67-.407.713 0 1.482.074 2.297.213.806.139 1.668.361 2.548.676l.14.047v.463c0 .556-.102 1-.297 1.325-.213.352-.565.537-1.038.537-.213 0-.454-.027-.695-.083-.232-.056-.5-.102-.797-.157-.287-.056-.63-.102-1.01-.158-.37-.056-.797-.074-1.26-.074-.51 0-.945.046-1.279.139-.324.093-.584.213-.778.361-.185.149-.324.306-.399.482-.083.176-.12.362-.12.547 0 .445.139.76.435.982.325.241.918.491 1.78.723l2.02.574c2.761.723 4.16 2.196 4.16 4.374-.009.695-.12 1.344-.352 1.918" transform="translate(-508 -3310) translate(508 3310) translate(0 3.846)"/>
                    <path fill="#9E9E9E" d="M6.787 12.82l2.308.445c.843.157 1.278.352 1.278.806 0 .352-.333.722-1.417.722-.992 0-2.317-.148-3.15-.148-.816 0-1.678.37-1.678 1.965 0 .194.037.444.083.64 1.205.138 3.762.36 5.523.175 2.428-.26 3.623-1.603 3.623-3.428 0-1.576-.973-2.864-3.234-3.28l-2.196-.408c-.704-.13-1.149-.288-1.149-.686 0-.38.463-.686 1.585-.686 1.102 0 2.066.12 2.696.12.816 0 1.65-.342 1.65-1.936 0-.213-.019-.408-.065-.62-1.205-.15-3.392-.372-5.199-.177-2.39.25-3.604 1.677-3.604 3.392 0 1.408 1.028 2.733 2.946 3.104M17.305 15.952V2.488c-.232-.047-.473-.074-.714-.074-1.937 0-2.27 1.028-2.27 2.02v13.019c.213.028.435.046.686.046 1.908 0 2.298-.565 2.298-1.547M22.846 17.527c.769 0 1.408-.176 1.696-.315l-3.568-5.384 2.53-2.678 4.151 6.515-2.52 5.328c.25.13.769.287 1.417.305 1.112.019 1.715-.407 2.169-1.399l5.967-13.316c-.25-.13-.787-.278-1.241-.287-.77-.009-1.798.148-2.456 1.715l-1.937 4.559-3.79-6.172c-.24-.074-.843-.185-1.278-.185-1.335 0-2.085.49-2.864 1.334l-3.688 4.031 2.966 4.661c.556.853 1.278 1.288 2.446 1.288" transform="translate(-508 -3310) translate(508 3310) translate(0 3.846)"/>
                </g>
                <g>
                    <path fill="#9E9E9E" d="M48.553.068v18.77c0 4.843-5.677 5.6-8.023 1.74l-4.919-8.097v6.357c.075 4.844-5.6 5.6-7.947 1.74l-4.919-8.096v5.75c0 2.952-1.74 4.542-4.39 4.542h-6.281c-15.969 0-16.12-22.705-.227-22.705h2.725v6.433h-3.027c-6.585 0-7.266 9.839.454 9.839h3.557c.378 0 .681-.379.681-.757V4.231c0-4.238 5.45-6.282 8.325-1.362 2.952 4.995 4.617 7.947 4.617 7.947V4.23c0-4.238 5.373-6.282 8.249-1.362 2.952 4.995 4.617 7.947 4.617 7.947V.068h6.508z" transform="translate(-508 -3310) translate(508 3310) translate(141.538 3.846)"/>
                    <path fill="#FFF" d="M44.92.068V18.46c0 .377-.152.68-.38.756-.226 0-.453-.076-.605-.302-.075-.152-7.568-12.186-9.46-15.212-.378-.53-.984-.757-1.514-.606-.605.151-.908.757-.908 1.438V18.46c0 .378-.151.68-.378.757-.227 0-.455-.076-.606-.303-.075-.151-7.643-12.185-9.46-15.212-.379-.53-.984-.757-1.514-.605-.605.151-.983.757-.983 1.438v13.85c0 .378-.303.756-.757.756H11.62c-5.525 0-8.022-4.01-8.022-7.719 0-3.86 2.648-7.72 7.795-7.72h3.178v-.756h-3.178c-5.6 0-8.552 4.314-8.552 8.476 0 4.087 2.8 8.476 8.779 8.476h6.736c.378 0 .757-.15 1.06-.454.302-.303.453-.68.453-1.059V4.534c0-.378.152-.681.379-.757.302-.075.53.076.756.303 1.817 3.027 9.385 15.06 9.46 15.211.303.53.909.758 1.438.606.379-.15.833-.606.833-1.437V4.534c0-.378.151-.681.454-.757.227-.075.454.076.682.303 1.816 3.027 9.384 15.06 9.46 15.211.378.53.908.758 1.438.606.454-.15.908-.606.908-1.437V.068h-.758z" transform="translate(-508 -3310) translate(508 3310) translate(141.538 3.846)"/>
                    <path fill="#9E9E9E" d="M64.823 15.507c-.226-2.876-2.648-4.238-5.297-4.238-3.633 0-5.676 2.574-5.676 6.055 0 3.33 2.271 5.751 5.676 5.751 2.876 0 4.994-1.664 5.374-4.615h-2.952c-.227 1.361-1.06 2.27-2.498 2.27-1.891 0-2.497-1.893-2.497-3.482 0-1.664.606-3.633 2.574-3.633 1.286 0 2.12.682 2.27 1.893h3.026zm1.212 1.666c0 3.556 2.27 5.902 5.827 5.902 3.482 0 5.752-2.346 5.752-5.902 0-3.558-2.27-5.904-5.752-5.904-3.557 0-5.827 2.346-5.827 5.904zm3.103 0c0-1.817.605-3.558 2.725-3.558 2.043 0 2.725 1.74 2.725 3.558 0 1.816-.682 3.556-2.725 3.556-2.12 0-2.725-1.74-2.725-3.556zm9.914 5.6h2.952v-6.51c0-2.194 1.513-2.572 2.119-2.572 1.892 0 1.816 1.513 1.816 2.8v6.281h3.103v-6.204c0-1.438.303-2.876 2.043-2.876 1.74 0 1.892 1.21 1.892 2.725v6.357h3.028V15.28c0-2.875-1.666-4.01-4.087-4.01-1.514 0-2.725.907-3.33 1.891-.605-1.361-1.892-1.892-3.255-1.892-1.437 0-2.649.681-3.405 1.817h-.075v-1.514h-2.801v11.2zm-29.516-1.59c0-.983.832-1.815 1.892-1.815s1.892.832 1.892 1.816c.006.503-.192.987-.548 1.343-.356.356-.84.554-1.344.549-.503.005-.987-.193-1.343-.55-.356-.355-.554-.84-.55-1.342z" transform="translate(-508 -3310) translate(508 3310) translate(141.538 3.846)"/>
                </g>
                <g>
                    <path fill="#9E9E9E" d="M7.005 25.535c-.146-.71-.734-.898-1.39-.954-2.12-.197-2.497 1.373-2.497 2.035 0 1.135.335 2.075 2.417 2.075.383 0 1.443-.394 1.443-1.028H9.97C9.851 29.55 6.651 30 5.255 30c-2.894 0-5.369-.533-5.251-3.355.087-2.02 2.008-3.434 5.831-3.346 2.131.049 4.178.71 4.187 2.236H7.005m29.978 0c-.148-.71-.732-.898-1.388-.954-2.122-.197-2.495 1.373-2.495 2.035 0 1.135.331 2.075 2.412 2.075.385 0 1.446-.394 1.446-1.028h2.991C39.83 29.55 36.63 30 35.233 30c-2.892 0-5.368-.533-5.249-3.355.085-2.02 2.006-3.434 5.83-3.346 2.133.049 4.18.71 4.186 2.236h-3.017m-26.427-2.101h3.886l3.314 4.607h.027v-4.607h2.49v6.399h-3.721l-3.478-4.608h-.027v4.608h-2.491v-6.399zm13.22 5.058h.782c1.451 0 1.984-.152 1.984-.647 0-.534-.672-.71-1.757-.71h-1.008v1.357zm0-2.572h.782c1.203 0 1.842-.09 1.842-.588 0-.533-.53-.708-1.615-.708h-1.008v1.296zm-2.734-2.486h4.72c2.268 0 3.604.63 3.604 1.58 0 .559-.56 1.25-1.806 1.453v.018c1.502.09 2.053 1.029 2.053 1.591 0 1.128-1.301 1.755-3.837 1.755h-4.734v-6.397" transform="translate(-508 -3310) translate(508 3310) translate(268.462)"/>
                    <path fill="#FFF" d="M34.893 22.727c3.071 0 4.776-2.628 4.588-5.112-.302-3.234-3.295-4.474-4.928-4.212 1.364-.75 3.184-4.284.418-7.068-2.202-2.066-5.005-1.316-5.99-.414.533-1.728-.34-5.301-3.905-5.864-3.22-.376-4.624 1.843-5.041 2.894-.606-1.504-2.084-3.12-4.852-2.893-3.525.376-4.624 3.721-4.094 5.715-1.403-.942-3.79-1.356-5.875.412-2.691 2.67-1.25 6.278.228 7.144-1.63-.15-4.208.942-4.776 3.798-.607 3.536 2.122 5.6 4.776 5.6h29.451" transform="translate(-508 -3310) translate(508 3310) translate(268.462)"/>
                    <path fill="#9E9E9E" d="M12.151 8.441l5.42 12.296L6.387 13.14c-2.805-1.842-2.236-5-.681-6.392 2.198-1.842 5.307-1.204 6.444 1.692M19.58 5.546l-1.97 13.76-5.611-13.082C10.788 2.952 13.515.808 15.334.772c2.086-.228 4.701 1.352 4.246 4.774M28.11 6.186l-5.574 13.12-1.78-11.842c-.153-1.804.984-1.842 1.402-2.18-.074-.264-.645-.264-.645-.264h-1.061C20.338 1.936 22.765.584 24.734.732c2.122.076 4.512 2.522 3.376 5.454M33.795 13.066l-11.181 7.631 5.269-12.143c1.59-3.836 5.305-3.082 6.63-1.616 1.444 1.428 1.86 4.324-.718 6.128M34.97 22.054H22.042l10.502-7.26c2.576-1.69 5.306-.148 6.027 2.07.76 2.482-.949 5.19-3.6 5.19M1.5 16.714c.984-2.558 3.714-3.46 6.14-1.92l10.5 7.26H5.404c-2.654 0-4.738-2.406-3.905-5.34" transform="translate(-508 -3310) translate(508 3310) translate(268.462)"/>
                </g>
            </g>
        </g>
    </g>
</svg>
