<svg xmlns="http://www.w3.org/2000/svg" width="24" height="24" viewBox="0 0 24 24">
    <g fill="none" fill-rule="evenodd">
        <g fill="#000" fill-rule="nonzero">
            <g>
                <path d="M9.53 23.572c-.859.145-1.675-.426-1.833-1.283l-.725-4.109 3.1-.546.724 4.108c.154.854-.412 1.672-1.266 1.83zm11.224-5.943c-.262.224-.627.287-.95.163l-4.324-1.596c-1.273-.47-2.647-.593-3.983-.359l-7.352 1.297c-1.459.25-2.846-.722-3.11-2.178L.04 9.315c-.256-1.46.719-2.852 2.178-3.11l7.353-1.296c1.333-.237 2.58-.823 3.612-1.699L16.701.228c.263-.223.625-.288.949-.17.324.116.56.398.62.737l.669 3.79v.032c0 .012.01.02.011.03l1.46 8.228v.031c0 .01.01.02.012.032l.668 3.788c.061.34-.067.686-.336.903zm1.006-5.846L20.6 5.204c1.588.093 2.905 1.265 3.181 2.832.276 1.567-.56 3.118-2.021 3.748v-.001z" transform="translate(-173 -914) translate(173 914)"/>
            </g>
        </g>
    </g>
</svg>
