<svg xmlns="http://www.w3.org/2000/svg" width="18" height="24" viewBox="0 0 18 24">
    <g fill="none" fill-rule="evenodd">
        <g fill="#E33333" fill-rule="nonzero">
            <g>
                <path d="M10.853.335C10.46-.025 9.9-.104 9.426.142c-.486.25-.754.766-.686 1.313.288 2.296-.337 4.662-1.67 6.327-.098.122-.173.196-.226.239-.077-.114-.207-.374-.374-.957-.187-.645-.194-1.634-.194-1.644-.001-.283-.177-.535-.443-.632-.264-.1-.562-.02-.745.195-.083.094-1.986 2.328-2.586 3.247C.155 11.833-.532 15.037.404 18.023c1.092 3.49 4.507 5.86 8.378 5.86.117 0 .235-.003.353-.007 4.29-.16 7.823-3.237 8.592-7.484.95-5.256-1.62-11.26-6.874-16.057z" transform="translate(-179 -855) translate(179 855)"/>
            </g>
        </g>
    </g>
</svg>
