<svg xmlns="http://www.w3.org/2000/svg" width="16" height="13" viewBox="0 0 16 13">
    <g fill="none" fill-rule="evenodd">
        <g fill="#000" fill-rule="nonzero">
            <g>
                <path d="M13.257 2.943c.006.128.009.256.009.386 0 3.942-3.048 8.486-8.62 8.486-1.712 0-3.304-.494-4.646-1.34.237.027.478.042.723.042 1.42 0 2.726-.477 3.763-1.277-1.326-.024-2.445-.887-2.83-2.072.185.036.374.054.57.054.276 0 .544-.037.798-.104-1.386-.275-2.43-1.48-2.43-2.925v-.038c.409.223.875.358 1.372.373C1.153 3.993.618 3.08.618 2.046c0-.547.15-1.06.41-1.5C2.524 2.35 4.757 3.538 7.274 3.663c-.05-.219-.078-.446-.078-.68C7.195 1.336 8.552 0 10.225 0c.872 0 1.66.362 2.212.942.69-.134 1.339-.382 1.924-.724-.226.697-.706 1.281-1.332 1.65.613-.071 1.197-.232 1.74-.469-.406.598-.92 1.123-1.512 1.544" transform="translate(-1143 -1425) translate(1143.667 1425.111)"/>
            </g>
        </g>
    </g>
</svg>
