<svg xmlns="http://www.w3.org/2000/svg" width="16" height="16" viewBox="0 0 16 16">
    <g fill="none" fill-rule="evenodd">
        <g fill="#000" fill-rule="nonzero">
            <g>
                <path d="M14.583 5.381c-.19-.058-.39-.088-.59-.088h-4.01V3.31C9.982.779 8.251.039 7.335 0c-.181-.006-.358.06-.49.184-.132.125-.206.297-.206.478v3.069L5.09 5.964v9.254h7.052c.882.004 1.662-.566 1.918-1.402l1.852-5.954c.156-.503.104-1.048-.146-1.513-.249-.465-.674-.813-1.183-.968zM4.364 5.978H1.09c-.603 0-1.091.296-1.091.66v7.92c0 .364.488.66 1.09.66h3.274" transform="translate(-1144 -1283) translate(1144 1283)"/>
            </g>
        </g>
    </g>
</svg>
