<svg xmlns="http://www.w3.org/2000/svg" width="14" height="10" viewBox="0 0 14 10">
    <g fill="none" fill-rule="evenodd">
        <g fill="#FFF" fill-rule="nonzero">
            <g>
                <g>
                    <path d="M13.123 4.094C11.8 1.642 9.405 0 6.664 0 3.935 0 1.55 1.627.224 4.062c-.298.601-.298.601 0 1.202 1.326 2.434 3.711 4.061 6.44 4.061 2.731 0 5.119-1.63 6.445-4.068.294-.594.294-.594.014-1.163zM6.669 7.329c-1.473 0-2.667-1.194-2.667-2.666 0-1.473 1.194-2.667 2.667-2.667 1.473 0 2.667 1.194 2.667 2.667 0 1.472-1.194 2.666-2.667 2.666zm0-4.667c-1.105 0-2 .896-2 2 0 1.105.895 2 2 2 1.104 0 2-.895 2-2 0-1.104-.896-2-2-2z" transform="translate(-814 -938) translate(760 934) translate(54 4)"/>
                </g>
            </g>
        </g>
    </g>
</svg>
