<svg xmlns="http://www.w3.org/2000/svg" width="27" height="28" viewBox="0 0 27 28">
    <defs>
        <filter id="fw4s5keeda" width="184.1%" height="172.2%" x="-41.3%" y="-36.1%" filterUnits="objectBoundingBox">
            <feOffset dy="1" in="SourceAlpha" result="shadowOffsetOuter1"/>
            <feGaussianBlur in="shadowOffsetOuter1" result="shadowBlurOuter1" stdDeviation="1"/>
            <feColorMatrix in="shadowBlurOuter1" result="shadowMatrixOuter1" values="0 0 0 0 0 0 0 0 0 0 0 0 0 0 0 0 0 0 0.201500526 0"/>
            <feMerge>
                <feMergeNode in="shadowMatrixOuter1"/>
                <feMergeNode in="SourceGraphic"/>
            </feMerge>
        </filter>
    </defs>
    <g fill="none" fill-rule="evenodd">
        <g fill="#FFF" fill-rule="nonzero">
            <g>
                <g filter="url(#fw4s5keeda)" transform="translate(-1049 -1379) translate(1054 1384) translate(.125)">
                    <path d="M11.25 1.125v15.75c0 .621-.504 1.125-1.125 1.125h-.664c-.295-.001-.578-.118-.787-.326l-4.309-4.309c-.632-.633-1.49-.99-2.385-.99-1.094 0-1.98-.886-1.98-1.98v-2.79c0-1.094.886-1.98 1.98-1.98.895 0 1.753-.357 2.385-.99L8.674.326c.21-.208.492-.325.787-.326h.664c.621 0 1.125.504 1.125 1.125zm3.6 5.175c-.1-.126-.246-.206-.405-.225-.164-.009-.323.052-.439.169l-.81.81c-.188.19-.216.486-.067.708.494.751.494 1.725 0 2.476-.15.222-.12.518.067.708l.81.81c.109.118.262.185.422.185.16 0 .313-.067.422-.185 1.2-1.6 1.2-3.8 0-5.4V6.3z"/>
                </g>
            </g>
        </g>
    </g>
</svg>
